<svg width="1460" height="334" viewBox="0 0 1460 334" fill="none" xmlns="http://www.w3.org/2000/svg">
<path d="M336.451 284.474L398.191 131.174H426.331L487.441 284.474H469.381L419.611 160.154L428.431 160.574L378.241 284.474H336.451ZM388.111 246.884V229.034H455.941V246.884H388.111ZM507.758 284.474V131.174H538.208L583.148 241.844H577.058L622.208 131.174H664.628V284.474H647.828V158.054L652.448 160.154L601.838 284.474H582.098L531.488 160.364L536.318 160.994V284.474H507.758ZM710.275 284.474V248.774H776.425C782.865 248.774 787.555 247.584 790.495 245.204C793.435 242.684 794.905 239.464 794.905 235.544C794.905 231.484 793.435 228.264 790.495 225.884C787.555 223.364 782.865 222.104 776.425 222.104H713.005V202.784H774.955C780.835 202.784 785.105 201.664 787.765 199.424C790.565 197.184 791.965 194.314 791.965 190.814C791.965 187.034 790.635 184.024 787.975 181.784C785.455 179.544 781.185 178.424 775.165 178.424H710.275V131.174H760.255C777.475 131.174 790.215 134.954 798.475 142.514C806.875 150.074 811.075 160.924 811.075 175.064C811.075 187.104 808.275 196.274 802.675 202.574C797.215 208.734 788.955 212.514 777.895 213.914L777.475 210.134C786.295 210.834 793.295 212.724 798.475 215.804C803.795 218.884 807.645 223.014 810.025 228.194C812.405 233.234 813.595 239.184 813.595 246.044C813.595 253.604 811.985 260.324 808.765 266.204C805.545 272.084 800.435 276.634 793.435 279.854C786.435 282.934 777.195 284.474 765.715 284.474H710.275ZM701.245 284.474V131.174H718.045V284.474H701.245ZM823.806 284.474L885.546 131.174H913.686L974.796 284.474H956.736L906.966 160.154L915.786 160.574L865.596 284.474H823.806ZM875.466 246.884V229.034H943.296V246.884H875.466ZM1101.79 287.414C1096.89 287.414 1092.76 286.434 1089.4 284.474C1086.04 282.514 1083.31 279.154 1081.21 274.394C1079.25 269.494 1077.78 262.914 1076.8 254.654C1076.24 249.334 1075.26 245.344 1073.86 242.684C1072.6 240.024 1070.71 238.274 1068.19 237.434C1065.67 236.454 1062.17 235.964 1057.69 235.964H1008.76V208.454H1069.66C1076.66 208.454 1081.77 207.054 1084.99 204.254C1088.21 201.454 1089.82 197.604 1089.82 192.704C1089.82 188.084 1088.28 184.514 1085.2 181.994C1082.12 179.474 1077.29 178.214 1070.71 178.214H1011.91V284.474H995.114V131.174H1061.26C1072.74 131.174 1081.98 132.994 1088.98 136.634C1096.12 140.134 1101.37 145.314 1104.73 152.174C1108.09 158.894 1109.77 167.294 1109.77 177.374C1109.77 192.214 1106.48 203.694 1099.9 211.814C1093.46 219.794 1083.17 223.504 1069.03 222.944L1068.4 220.424C1075.54 220.704 1080.72 221.964 1083.94 224.204C1087.16 226.444 1089.54 230.854 1091.08 237.434C1091.78 241.214 1092.76 244.154 1094.02 246.254C1095.42 248.214 1096.96 249.614 1098.64 250.454C1100.46 251.154 1102.35 251.504 1104.31 251.504C1106.41 251.504 1108.37 251.224 1110.19 250.664C1112.15 249.964 1113.83 248.984 1115.23 247.724L1123.21 274.184C1120.83 278.664 1117.82 282.024 1114.18 284.264C1110.68 286.364 1106.55 287.414 1101.79 287.414Z" fill="#9C4500"/>
<path opacity="0.1" d="M0 141.474L42.924 34.894H62.488L104.974 141.474H92.418L57.816 55.042L63.948 55.334L29.054 141.474H0ZM35.916 115.34V102.93H83.074V115.34H35.916ZM119.099 141.474V34.894H140.27L171.514 111.836H167.279L198.67 34.894H228.162V141.474H216.482V53.582L219.694 55.042L184.508 141.474H170.784L135.597 55.188L138.956 55.626V141.474H119.099ZM259.897 141.474V116.654H305.887C310.364 116.654 313.625 115.827 315.669 114.172C317.713 112.42 318.735 110.181 318.735 107.456C318.735 104.633 317.713 102.395 315.669 100.74C313.625 98.988 310.364 98.112 305.887 98.112H261.795V84.68H304.865C308.953 84.68 311.922 83.9013 313.771 82.344C315.718 80.7867 316.691 78.7913 316.691 76.358C316.691 73.73 315.766 71.6373 313.917 70.08C312.165 68.5227 309.196 67.744 305.011 67.744H259.897V34.894H294.645C306.617 34.894 315.474 37.522 321.217 42.778C327.057 48.034 329.977 55.5773 329.977 65.408C329.977 73.7787 328.03 80.154 324.137 84.534C320.341 88.8167 314.598 91.4447 306.909 92.418L306.617 89.79C312.749 90.2767 317.616 91.5907 321.217 93.732C324.916 95.8733 327.592 98.7447 329.247 102.346C330.902 105.85 331.729 109.987 331.729 114.756C331.729 120.012 330.61 124.684 328.371 128.772C326.132 132.86 322.58 136.023 317.713 138.262C312.846 140.403 306.422 141.474 298.441 141.474H259.897ZM253.619 141.474V34.894H265.299V141.474H253.619ZM338.828 141.474L381.752 34.894H401.316L443.802 141.474H431.246L396.644 55.042L402.776 55.334L367.882 141.474H338.828ZM374.744 115.34V102.93H421.902V115.34H374.744ZM532.096 143.518C528.689 143.518 525.818 142.837 523.482 141.474C521.146 140.111 519.248 137.775 517.788 134.466C516.425 131.059 515.403 126.485 514.722 120.742C514.333 117.043 513.651 114.269 512.678 112.42C511.802 110.571 510.488 109.354 508.736 108.77C506.984 108.089 504.551 107.748 501.436 107.748H467.418V88.622H509.758C514.625 88.622 518.177 87.6487 520.416 85.702C522.655 83.7553 523.774 81.0787 523.774 77.672C523.774 74.46 522.703 71.978 520.562 70.226C518.421 68.474 515.063 67.598 510.488 67.598H469.608V141.474H457.928V34.894H503.918C511.899 34.894 518.323 36.1593 523.19 38.69C528.154 41.1233 531.804 44.7247 534.14 49.494C536.476 54.166 537.644 60.006 537.644 67.014C537.644 77.3313 535.357 85.3127 530.782 90.958C526.305 96.506 519.151 99.0853 509.32 98.696L508.882 96.944C513.846 97.1387 517.447 98.0147 519.686 99.572C521.925 101.129 523.579 104.195 524.65 108.77C525.137 111.398 525.818 113.442 526.694 114.902C527.667 116.265 528.738 117.238 529.906 117.822C531.171 118.309 532.485 118.552 533.848 118.552C535.308 118.552 536.671 118.357 537.936 117.968C539.299 117.481 540.467 116.8 541.44 115.924L546.988 134.32C545.333 137.435 543.241 139.771 540.71 141.328C538.277 142.788 535.405 143.518 532.096 143.518ZM606.351 141.474V116.654H652.341C656.818 116.654 660.079 115.827 662.123 114.172C664.167 112.42 665.189 110.181 665.189 107.456C665.189 104.633 664.167 102.395 662.123 100.74C660.079 98.988 656.818 98.112 652.341 98.112H608.249V84.68H651.319C655.407 84.68 658.375 83.9013 660.225 82.344C662.171 80.7867 663.145 78.7913 663.145 76.358C663.145 73.73 662.22 71.6373 660.371 70.08C658.619 68.5227 655.65 67.744 651.465 67.744H606.351V34.894H641.099C653.071 34.894 661.928 37.522 667.671 42.778C673.511 48.034 676.431 55.5773 676.431 65.408C676.431 73.7787 674.484 80.154 670.591 84.534C666.795 88.8167 661.052 91.4447 653.363 92.418L653.071 89.79C659.203 90.2767 664.069 91.5907 667.671 93.732C671.369 95.8733 674.046 98.7447 675.701 102.346C677.355 105.85 678.183 109.987 678.183 114.756C678.183 120.012 677.063 124.684 674.825 128.772C672.586 132.86 669.033 136.023 664.167 138.262C659.3 140.403 652.876 141.474 644.895 141.474H606.351ZM600.073 141.474V34.894H611.753V141.474H600.073ZM737.845 143.518C728.793 143.518 720.666 141.62 713.463 137.824C706.261 133.931 700.615 127.896 696.527 119.72C692.439 111.544 690.395 101.032 690.395 88.184C690.395 75.2387 692.439 64.7267 696.527 56.648C700.615 48.472 706.261 42.486 713.463 38.69C720.666 34.7967 728.793 32.85 737.845 32.85C744.659 32.85 750.937 33.9207 756.679 36.062C762.519 38.106 767.532 41.3667 771.717 45.844C776 50.3213 779.358 56.064 781.791 63.072C784.225 70.08 785.441 78.4507 785.441 88.184C785.441 101.032 783.349 111.544 779.163 119.72C774.978 127.896 769.284 133.931 762.081 137.824C754.976 141.62 746.897 143.518 737.845 143.518ZM737.845 117.53C746.313 117.53 753.273 116.557 758.723 114.61C764.271 112.566 768.359 109.646 770.987 105.85C773.713 102.054 775.075 97.4793 775.075 92.126C775.075 86.7727 773.713 82.198 770.987 78.402C768.359 74.606 764.271 71.7347 758.723 69.788C753.273 67.8413 746.313 66.868 737.845 66.868C729.475 66.868 722.515 67.8413 716.967 69.788C711.517 71.7347 707.429 74.606 704.703 78.402C701.978 82.198 700.615 86.7727 700.615 92.126C700.615 97.4793 701.978 102.054 704.703 105.85C707.429 109.646 711.517 112.566 716.967 114.61C722.515 116.557 729.475 117.53 737.845 117.53ZM792.888 68.766V34.894H875.524V68.766H792.888ZM828.366 141.474V40.88H840.046V141.474H828.366ZM867.919 141.474L910.843 34.894H930.407L972.893 141.474H960.337L925.735 55.042L931.867 55.334L896.973 141.474H867.919ZM903.835 115.34V102.93H950.993V115.34H903.835ZM895.075 28.032L892.155 21.754C897.313 18.9313 902.034 15.622 906.317 11.826C910.599 7.93267 913.763 3.99067 915.807 5.96046e-07H925.589C927.633 3.99067 930.747 7.93267 934.933 11.826C939.215 15.622 943.936 18.9313 949.095 21.754L946.175 28.032C942.379 27.6427 938.631 26.9613 934.933 25.988C931.331 24.9173 928.071 23.5547 925.151 21.9C922.328 20.148 920.187 18.104 918.727 15.768H922.961C920.527 19.3693 916.683 22.192 911.427 24.236C906.171 26.28 900.72 27.5453 895.075 28.032ZM987.018 141.474V34.894H1014.47L1075.79 124.684L1066.59 134.174V34.894H1078.27V141.474H1051.99L994.026 57.524L998.698 54.896V141.474H987.018ZM1121.38 121.91V62.196H1133.06V121.91H1121.38ZM1100.36 141.474V115.632H1154.09V141.474H1100.36ZM1100.07 68.766V34.894H1154.23V68.766H1100.07ZM1215.84 143.518C1206.01 143.518 1197.49 141.62 1190.29 137.824C1183.18 134.028 1177.63 128.188 1173.64 120.304C1169.75 112.323 1167.8 102.103 1167.8 89.644C1167.8 76.4067 1169.95 65.6027 1174.23 57.232C1178.51 48.8613 1184.4 42.7293 1191.89 38.836C1199.49 34.8453 1208.1 32.85 1217.74 32.85C1227.57 32.85 1235.6 34.6993 1241.83 38.398C1248.06 42.0967 1252.87 46.8173 1256.28 52.56L1248.69 76.504C1244.6 73.0973 1239.98 70.664 1234.82 69.204C1229.66 67.6467 1223.58 66.868 1216.57 66.868C1203.62 66.868 1194.04 69.0093 1187.81 73.292C1181.67 77.4773 1178.61 83.658 1178.61 91.834C1178.61 100.302 1181.67 106.677 1187.81 110.96C1193.94 115.243 1203.33 117.384 1215.98 117.384C1223.28 117.384 1229.66 116.508 1235.11 114.756C1240.66 113.004 1245.48 110.522 1249.56 107.31L1255.26 125.56C1251.95 130.913 1247.08 135.245 1240.66 138.554C1234.23 141.863 1225.96 143.518 1215.84 143.518ZM1313.99 143.518C1304.93 143.518 1296.81 141.62 1289.6 137.824C1282.4 133.931 1276.76 127.896 1272.67 119.72C1268.58 111.544 1266.54 101.032 1266.54 88.184C1266.54 75.2387 1268.58 64.7267 1272.67 56.648C1276.76 48.472 1282.4 42.486 1289.6 38.69C1296.81 34.7967 1304.93 32.85 1313.99 32.85C1320.8 32.85 1327.08 33.9207 1332.82 36.062C1338.66 38.106 1343.67 41.3667 1347.86 45.844C1352.14 50.3213 1355.5 56.064 1357.93 63.072C1360.37 70.08 1361.58 78.4507 1361.58 88.184C1361.58 101.032 1359.49 111.544 1355.3 119.72C1351.12 127.896 1345.42 133.931 1338.22 137.824C1331.12 141.62 1323.04 143.518 1313.99 143.518ZM1313.99 117.53C1322.45 117.53 1329.41 116.557 1334.86 114.61C1340.41 112.566 1344.5 109.646 1347.13 105.85C1349.85 102.054 1351.22 97.4793 1351.22 92.126C1351.22 86.7727 1349.85 82.198 1347.13 78.402C1344.5 74.606 1340.41 71.7347 1334.86 69.788C1329.41 67.8413 1322.45 66.868 1313.99 66.868C1305.62 66.868 1298.66 67.8413 1293.11 69.788C1287.66 71.7347 1283.57 74.606 1280.84 78.402C1278.12 82.198 1276.76 86.7727 1276.76 92.126C1276.76 97.4793 1278.12 102.054 1280.84 105.85C1283.57 109.646 1287.66 112.566 1293.11 114.61C1298.66 116.557 1305.62 117.53 1313.99 117.53ZM1413.97 143.518C1403.55 143.518 1394.89 141.912 1387.98 138.7C1381.17 135.391 1376.2 131.157 1373.09 125.998L1379.07 106.726C1383.94 110.619 1389.34 113.588 1395.28 115.632C1401.22 117.579 1408.13 118.552 1416.01 118.552C1421.85 118.552 1426.33 118.114 1429.44 117.238C1432.56 116.265 1434.7 114.951 1435.87 113.296C1437.13 111.544 1437.76 109.646 1437.76 107.602C1437.76 105.558 1437.03 103.952 1435.57 102.784C1434.21 101.616 1431.63 100.643 1427.84 99.864C1424.04 99.0853 1418.64 98.5013 1411.63 98.112C1403.65 97.6253 1396.98 96.4573 1391.63 94.608C1386.37 92.6613 1382.43 89.5467 1379.8 85.264C1377.17 80.9813 1375.86 75.19 1375.86 67.89C1375.86 60.298 1377.56 53.9227 1380.97 48.764C1384.38 43.508 1389.2 39.566 1395.42 36.938C1401.65 34.2127 1408.95 32.85 1417.32 32.85C1426.47 32.85 1434.07 34.5047 1440.1 37.814C1446.14 41.1233 1450.95 45.8927 1454.55 52.122L1447.4 75.044C1443.31 71.832 1438.74 69.496 1433.68 68.036C1428.62 66.4787 1422.53 65.7 1415.43 65.7C1409.59 65.7 1404.96 66.1867 1401.56 67.16C1398.15 68.036 1395.72 69.204 1394.26 70.664C1392.89 72.124 1392.21 73.876 1392.21 75.92C1392.21 77.8667 1392.94 79.4727 1394.4 80.738C1395.86 82.0033 1398.54 83.0253 1402.43 83.804C1406.33 84.4853 1411.87 85.0693 1419.08 85.556C1427.25 85.9453 1434.02 87.016 1439.37 88.768C1444.82 90.52 1448.86 93.1967 1451.49 96.798C1454.12 100.399 1455.43 105.266 1455.43 111.398C1455.43 122.299 1451.93 130.378 1444.92 135.634C1438.01 140.89 1427.69 143.518 1413.97 143.518Z" fill="#9C4500"/>
</svg>
