<svg width="138" height="172" viewBox="0 0 138 172" fill="none" xmlns="http://www.w3.org/2000/svg">
<path fill-rule="evenodd" clip-rule="evenodd" d="M60.6262 1.81546C68.1335 0.49245 75.8254 -0.276741 80.2867 0.0924712C88.0709 0.707824 96.1936 4.73838 102.655 10.5227C109.085 16.307 113.916 23.9374 114.993 31.8447C116.316 41.5057 118.562 51.4744 117.823 61.4432C117.3 68.3966 115.823 73.1656 111.7 78.8269L110.624 80.3037V80.1191C110.254 80.5499 109.824 80.9806 109.424 81.4114C108.593 82.2728 107.793 83.1343 107.178 83.9651C105.639 85.965 104.409 87.7495 103.27 89.3802C102.101 90.9801 101.024 92.4569 99.7934 93.7799C97.332 96.4567 94.3783 98.5797 89.2709 100.58C78.6868 104.702 69.5181 105.564 60.8108 103.687C52.6574 101.933 44.9655 97.7797 36.9351 91.7493L35.3352 90.5186C29.3663 85.8727 23.4281 78.2115 19.5822 69.8427C15.7054 61.4739 13.8594 52.2744 16.167 44.5209C17.9207 38.5828 21.3667 30.614 25.7972 23.4143C30.2278 16.2455 35.7044 9.75351 41.5503 6.98442C45.6116 5.04606 53.0881 3.16923 60.6262 1.84623V1.81546ZM81.1175 2.61542C77.0561 2.27697 70.4718 2.83079 63.8876 3.78459C57.3033 4.73838 50.7806 6.1537 46.8731 7.4767C39.2427 10.092 32.3815 17.2608 27.1202 25.7835C22.0128 34.0292 18.4745 43.4133 17.1823 50.8898L17.0592 51.5975C16.7515 53.5974 17.0592 56.028 17.7361 58.6741C18.4438 61.3201 19.5514 64.1507 20.8744 66.9198C23.4897 72.4887 26.8741 77.9038 29.3047 81.3191C32.5353 85.9342 39.2119 91.0416 46.5346 95.103C53.6419 99.0412 61.2723 101.933 66.872 102.518L67.3951 102.579L68.2258 102.641C72.5025 102.826 78.2253 101.872 83.6404 100.118C89.4247 98.2413 94.8091 95.5029 97.7935 92.3339L97.9781 92.1493C99.7934 90.1801 103.332 85.8111 106.624 81.3806C108.316 79.073 109.947 76.7654 111.27 74.7655C112.593 72.7349 113.516 71.0734 113.854 70.0273C118.1 57.5049 114.593 48.2438 112.654 35.8752C112.531 35.0445 112.562 34.183 112.593 33.4138C112.593 32.6139 112.624 31.8754 112.5 31.137C111.362 24.3989 106.931 17.5377 101.024 12.2149C95.1167 6.89212 87.8248 3.16923 81.1175 2.61542Z" fill="#252525"/>
<path d="M37.1806 17.9368C40.0728 15.4138 55.8258 9.35258 60.0718 8.0911C66.8407 6.12197 75.0556 7.19884 82.0399 8.0911C98.839 10.3064 105.485 20.2751 110.408 35.5358C113.607 45.4738 111.238 58.6731 108.777 68.6418C102.285 94.9174 71.3943 107.532 48.1339 93.4098C39.8267 88.3639 26.0735 73.8723 22.7506 64.7651C18.1355 52.0888 26.6273 31.0438 34.6577 20.8597C35.1808 20.2136 36.6884 18.3367 37.1806 17.906V17.9368ZM97.0852 86.6101C102.1 81.3489 105.7 76.3645 107.577 69.1957C112.008 52.3042 112.623 38.828 103.916 23.198C96.7468 10.3679 84.9936 8.98336 71.5481 8.12187C62.3178 7.53728 59.8564 9.69102 51.9799 12.7062C46.3186 14.8908 40.0728 15.9369 35.9807 20.8904C28.8426 29.5362 23.2429 43.6893 22.5353 54.9195C21.6738 68.7034 36.5961 84.2718 47.4263 91.533C62.8716 101.902 84.3167 99.9633 97.0545 86.6409L97.0852 86.6101Z" fill="#252525"/>
<path d="M69.8862 12.6469C76.1628 12.0008 82.0394 12.0623 87.5161 15.416C108.315 28.1846 108.377 48.3681 102.377 69.7209C98.5309 83.3509 82.3471 91.812 69.2093 94.1196C51.8256 97.1656 39.9185 83.6279 31.8266 70.2132C22.9963 55.537 28.596 35.2919 40.5339 24.154C50.0103 15.2929 57.0869 13.9391 69.8862 12.6469ZM72.1015 13.5084C66.9017 13.9084 53.7947 15.816 49.6411 18.2774C33.3958 27.9384 21.9502 51.2295 32.2881 68.8901C39.3032 80.8588 50.4718 94.4273 65.8556 93.3812C76.9012 92.6428 95.9464 83.6279 100.223 72.8284C101.915 68.5209 104.038 58.3061 104.684 53.5679C106.623 39.0763 100.777 26.2154 89.0545 17.8774C83.3009 13.7853 79.178 12.9853 72.1322 13.5392L72.1015 13.5084Z" fill="#252525"/>
<path d="M69.0257 17.4749C81.2097 16.7365 89.3016 20.7055 96.0089 30.6435C100.378 37.1047 101.547 43.5351 101.639 51.4117C101.701 57.4729 97.5473 70.8261 93.486 75.3489C83.1173 86.8868 67.8258 92.9788 52.8419 86.5483C43.3655 82.487 38.5042 71.9952 35.3659 62.7342C32.0122 52.7962 35.7659 36.1201 43.1501 28.5513C48.5345 23.0131 61.303 17.9672 68.9949 17.5057L69.0257 17.4749ZM71.6717 18.3364C61.3338 18.398 45.6115 24.7976 40.1964 33.8741C35.7351 41.3506 33.7044 54.5807 36.5966 62.7957C42.2271 78.8256 49.8882 89.5943 68.9026 88.0559C77.333 87.379 91.363 78.4564 95.209 70.8568C100.347 60.6727 102.778 44.2736 96.9935 34.0279C91.363 24.09 83.4557 18.2441 71.6717 18.3057V18.3364Z" fill="#252525"/>
<path d="M71.1807 22.7076C81.8879 21.1384 93.2411 31.9379 95.8871 41.7528C97.8563 49.1062 94.9333 62.5825 91.6104 69.5052C88.9029 75.1357 76.1651 82.3661 70.1039 83.566C59.4583 85.6582 47.4589 79.4431 43.1206 69.4744C38.7516 59.4749 37.644 51.0754 41.6746 40.6144C46.7512 27.4458 58.3506 24.5844 71.2115 22.7076H71.1807ZM48.628 76.0587C55.7661 82.9506 67.5809 84.489 76.442 80.2431C89.7028 73.9049 94.6257 64.1516 95.4564 49.6293C96.1333 38.1529 85.5492 23.2614 73.3037 23.5383C70.75 23.5999 60.9966 25.7228 58.3199 26.5535C55.9815 27.292 47.9819 31.6917 46.6897 33.384C42.9668 38.2145 40.5054 46.2448 40.1054 52.2753C39.6747 58.7365 43.8591 71.4743 48.5973 76.0587H48.628Z" fill="#252525"/>
<path d="M69.4563 27.5686C73.2408 27.2917 81.4865 29.9685 84.2863 32.7068C96.3165 44.5831 92.5628 68.1511 77.3021 75.4123C66.9949 80.3043 58.3492 80.1505 50.4112 71.3817C44.7192 65.1051 44.1346 58.7055 45.9191 50.6136C48.6266 38.245 55.9801 28.5224 69.4563 27.5686ZM68.1333 28.8916C63.7336 29.4147 56.0416 32.9529 53.3033 36.4605C48.9036 42.1217 44.8422 54.3365 46.4729 61.2592C49.1189 72.5201 59.7645 80.3351 71.4255 76.5507C83.3941 72.6432 89.0553 65.3205 90.1322 52.6442C91.2706 39.3834 82.2249 27.2302 68.1333 28.8608V28.8916Z" fill="#252525"/>
<path d="M79.5172 33.7208C81.6709 35.4745 85.8245 41.1358 86.1937 43.9356C86.7476 47.8739 86.3784 56.2427 85.2092 60.0271C82.8708 67.6883 69.7946 74.9494 62.0411 72.9188C52.1647 70.365 48.5341 59.4425 49.8879 50.1507C50.3494 46.9816 55.303 38.1206 57.8875 36.1822C63.4872 32.0593 73.4867 28.7672 79.5172 33.69V33.7208ZM67.6716 32.8285C58.9644 33.9977 50.6571 44.551 50.5956 53.1352C50.534 61.1655 53.4877 69.1036 61.7027 71.5034C69.0562 73.6572 78.6864 68.119 82.9324 62.1501C86.1014 57.7503 86.2245 43.8433 82.8708 39.3205C78.5018 33.4746 75.1174 31.7824 67.6409 32.7977L67.6716 32.8285Z" fill="#252525"/>
<path d="M66.3485 36.3379C79.117 33.7534 84.2245 49.968 79.8862 59.5367C78.2248 63.2288 68.3484 67.0748 64.5332 66.9517C60.6872 66.8286 55.3952 62.7058 54.7183 58.7675C53.5184 51.6909 58.595 37.907 66.3485 36.3379ZM75.9787 39.9069C71.9174 35.8456 63.9178 37.0148 60.5642 41.5376C59.7642 42.6145 56.9028 47.9988 56.4721 49.2911C54.1337 55.9984 55.3029 63.5057 63.0563 65.3518C66.5023 66.1825 75.7018 63.1365 77.9171 60.4905C81.9477 55.7215 80.3477 44.2452 75.9787 39.8762V39.9069Z" fill="#252525"/>
<path d="M63.1183 43.8735C67.5181 39.9352 71.7333 39.3506 75.0562 45.0119C79.9482 53.2884 74.5947 62.9802 64.5952 60.7649C59.457 59.6265 58.2878 50.4577 60.6877 46.4887C61.1184 45.7811 62.4722 44.5196 63.1491 43.9042L63.1183 43.8735ZM68.1335 42.0274C67.0874 42.2428 64.9029 43.8427 64.0721 44.5811C60.6261 47.5963 59.58 50.6423 60.9954 55.1344C63.6414 63.4725 74.8716 59.7803 75.7331 52.7345C76.2561 48.3963 73.364 41.0428 68.1335 42.0582V42.0274Z" fill="#252525"/>
<path d="M64.842 48.2119C65.0574 48.0273 68.1649 46.3659 68.4726 46.3351C74.8415 45.8736 74.78 60.2728 66.042 56.2115C63.3037 54.95 63.0267 49.8426 64.8728 48.2119H64.842ZM65.2728 49.5349C63.2421 51.9656 65.8266 55.9654 68.9034 55.9961C72.7185 55.9961 73.2108 46.9812 68.4726 47.6581C68.288 47.6581 65.3959 49.4119 65.2728 49.5349Z" fill="#252525"/>
<path d="M68.1028 49.0125C69.795 48.5817 71.7026 52.3662 70.4411 53.5969C66.749 56.3967 65.1491 49.7817 68.1028 49.0125ZM69.0873 50.3047C68.8104 50.1201 67.9797 50.3047 67.7643 50.5509C67.4874 50.8893 67.2413 51.8123 67.3951 52.2123C67.4874 52.4277 67.8566 53.0123 68.072 53.0738C68.4104 53.1969 69.4873 53.3507 69.7642 53.0738C70.2257 52.6123 69.6411 50.6739 69.0873 50.3047Z" fill="#252525"/>
<path d="M0.0195312 149.889L10.1753 125.008H13.886L23.9832 149.889H21.5029L12.9095 128.816L14.1009 128.953L5.50754 149.889H0.0195312ZM7.38245 143.405V140.847H19.1006V143.405H7.38245Z" fill="#252525"/>
<path d="M30.1758 149.889V125.008H34.2576L42.3432 144.44H41.3862L49.4912 125.008H55.0574V149.889H52.7333V128.387L53.5535 128.66L44.7258 149.889H42.0307L33.242 128.68L33.9842 128.777V149.87H30.1758V149.889Z" fill="#252525"/>
<path d="M64.0605 149.889V125.008H66.3846V149.889H64.0605ZM65.2909 149.889V145.085H75.4467C76.7943 145.085 77.7708 144.831 78.3762 144.304C78.9817 143.776 79.2942 143.093 79.2942 142.253C79.2942 141.413 78.9817 140.749 78.3762 140.241C77.7708 139.734 76.7748 139.499 75.4076 139.499H65.662V136.57H75.0952C76.3646 136.57 77.3021 136.335 77.888 135.847C78.4739 135.378 78.7669 134.753 78.7669 133.972C78.7669 133.132 78.4739 132.468 77.9075 131.98C77.3411 131.492 76.4232 131.238 75.1538 131.238H65.2714V125.008H73.2788C76.0326 125.008 78.0638 125.613 79.3723 126.824C80.6808 128.035 81.3448 129.754 81.3448 131.98C81.3448 133.816 80.9152 135.261 80.0363 136.335C79.1575 137.41 77.8099 138.035 75.9545 138.288L75.8178 137.644C77.3021 137.781 78.4544 138.113 79.3332 138.64C80.1926 139.167 80.8175 139.87 81.2081 140.71C81.5987 141.569 81.794 142.526 81.794 143.581C81.794 144.851 81.5402 145.964 81.0128 146.921C80.4855 147.878 79.6457 148.6 78.513 149.128C77.3607 149.636 75.8764 149.889 74.021 149.889H65.2519H65.2909Z" fill="#252525"/>
<path d="M86.4219 149.889L96.5776 125.008H100.288L110.386 149.889H107.905L99.3119 128.816L100.503 128.953L91.9099 149.889H86.4219ZM93.7848 143.405V140.847H105.503V143.405H93.7848Z" fill="#252525"/>
<path d="M133.9 150.3C133.118 150.3 132.474 150.143 131.946 149.831C131.419 149.518 130.99 148.952 130.677 148.151C130.365 147.35 130.13 146.257 129.993 144.87C129.896 143.913 129.74 143.191 129.525 142.702C129.31 142.214 128.978 141.882 128.529 141.706C128.099 141.53 127.494 141.452 126.732 141.452H118.451V137.663H127.865C129.369 137.663 130.462 137.37 131.146 136.785C131.829 136.199 132.161 135.378 132.161 134.324C132.161 133.347 131.849 132.586 131.204 132.039C130.56 131.492 129.525 131.218 128.099 131.218H118.92V149.889H116.596V125.008H126.888C128.802 125.008 130.325 125.301 131.497 125.867C132.65 126.453 133.509 127.273 134.036 128.347C134.564 129.422 134.837 130.769 134.837 132.39C134.837 134.656 134.329 136.453 133.294 137.742C132.259 139.031 130.638 139.675 128.431 139.675L128.392 139.226C129.544 139.304 130.384 139.558 130.911 140.027C131.439 140.495 131.79 141.355 132.005 142.624C132.122 143.366 132.279 143.952 132.493 144.343C132.708 144.733 132.962 145.026 133.275 145.183C133.587 145.339 133.919 145.417 134.271 145.417C134.622 145.417 134.974 145.358 135.267 145.241C135.579 145.124 135.833 144.968 136.028 144.772L137.122 148.327C136.79 148.971 136.341 149.44 135.794 149.772C135.247 150.104 134.603 150.26 133.88 150.26L133.9 150.3Z" fill="#252525"/>
<path d="M9.17924 170.962C8.28084 171.236 7.63635 171.216 5.91768 171.216H0V156.1H7.10902C8.33943 156.1 9.39407 156.354 10.3706 157.193C11.2104 157.896 11.6205 158.873 11.6205 159.986C11.6205 160.963 11.308 161.822 10.5854 162.506C10.2729 162.798 9.90186 163.013 9.76514 163.091C9.68702 163.131 9.53078 163.189 9.29642 163.267C9.72609 163.404 10.1167 163.541 10.4878 163.795C11.1323 164.224 12.0502 165.162 12.0502 167.056C12.0307 169.771 10.1167 170.689 9.15971 170.982L9.17924 170.962ZM8.55427 158.267C7.94883 157.896 7.4801 157.877 6.23017 157.877H1.9335V162.466H5.09741C6.36687 162.466 7.38245 162.447 7.85118 162.31C8.41755 162.174 9.49172 161.646 9.49172 160.084C9.49172 159.674 9.47219 158.814 8.55427 158.267ZM9.78468 165.806C9.60891 165.396 9.12065 164.556 7.96836 164.302C7.30433 164.146 6.85514 164.166 5.6052 164.166H1.89444V169.439H6.36688C7.20668 169.439 7.89024 169.4 8.18319 169.302C8.31991 169.283 8.63239 169.204 8.94487 169.009C9.39407 168.736 9.96045 168.169 9.96045 166.88C9.96045 166.685 9.96045 166.236 9.76514 165.787L9.78468 165.806Z" fill="#252525"/>
<path d="M29.9798 168.794C29.14 169.908 27.3237 171.607 23.9059 171.607C22.988 171.607 20.6443 171.509 18.7108 169.673C17.7148 168.736 16.3477 166.919 16.3477 163.638C16.3477 162.779 16.3867 160.162 18.2226 158.092C19.6483 156.49 21.8552 155.709 23.9645 155.709C24.9996 155.709 26.0151 155.885 26.9526 156.236C30.097 157.467 31.5617 160.299 31.5617 163.521C31.5617 164.322 31.5032 166.724 29.9798 168.794ZM28.2025 159.342C26.8159 157.428 24.7847 157.35 23.9645 157.35C21.5036 157.369 20.2537 158.599 19.6873 159.42C18.8475 160.611 18.535 162.271 18.535 163.658C18.535 165.65 19.1405 166.997 19.5506 167.662C19.9217 168.228 20.3514 168.638 20.5076 168.794C21.1326 169.322 21.6794 169.556 21.9724 169.673C22.3825 169.829 23.0075 170.025 24.0231 170.025C24.4137 170.025 25.3511 170.005 26.3081 169.575C27.7729 168.911 29.4134 167.154 29.3939 163.541C29.3939 163.013 29.3939 160.943 28.2221 159.342H28.2025Z" fill="#252525"/>
<path d="M40.4294 157.857V171.216H38.4177V157.857H33.8867V156.1H44.9604V157.857H40.4489H40.4294Z" fill="#252525"/>
<path d="M57.2241 171.216L55.5835 166.587H49.8221L48.1229 171.216H45.9746L51.736 156.099H53.8258L59.3333 171.216H57.2045H57.2241ZM53.982 154.713L52.654 153.131L51.3845 154.713H49.783L51.9509 152.057H53.3375L55.6226 154.713H53.982ZM52.7712 158.58L50.4666 164.888H54.9781L52.7712 158.58Z" fill="#252525"/>
<path d="M73.4155 171.216L65.1347 158.931L65.33 171.216H63.416V156.1H65.33L73.5132 168.208L73.435 156.1H75.2514V171.216H73.435H73.4155Z" fill="#252525"/>
<path d="M80.4844 171.216V156.1H82.5155V171.216H80.4844Z" fill="#252525"/>
<path d="M101.616 166.939C101.226 167.915 99.9173 170.376 96.9487 171.255C95.8746 171.568 94.9371 171.607 94.527 171.607C91.8513 171.607 90.328 170.532 89.5077 169.79C88.4921 168.853 87.125 166.958 87.125 163.658C87.125 158.951 89.9764 155.709 94.7614 155.709C95.6207 155.709 98.4721 155.768 100.327 157.955C100.952 158.678 101.343 159.459 101.656 160.338L99.6244 160.748C99.3705 160.025 99.1361 159.615 98.9408 159.342C98.4135 158.599 97.1245 157.33 94.7418 157.33C94.3707 157.33 93.4528 157.369 92.5349 157.76C89.371 159.107 89.3515 162.72 89.3515 163.56C89.3515 167.193 91.0896 168.911 92.5544 169.536C92.945 169.693 93.6677 169.927 94.7614 169.927C95.0152 169.927 95.6207 169.927 96.3042 169.732C96.9097 169.556 98.3159 168.99 99.1557 167.427C99.39 166.978 99.5853 166.49 99.7806 165.494L101.968 165.748C101.929 165.962 101.812 166.412 101.597 166.939H101.616Z" fill="#252525"/>
<path d="M119.351 168.794C118.511 169.908 116.695 171.607 113.277 171.607C112.359 171.607 110.015 171.509 108.082 169.673C107.066 168.736 105.719 166.919 105.719 163.638C105.719 162.779 105.758 160.162 107.594 158.092C109.039 156.49 111.226 155.709 113.336 155.709C114.371 155.709 115.386 155.885 116.343 156.236C119.488 157.467 120.952 160.299 120.952 163.521C120.952 164.322 120.894 166.724 119.37 168.794H119.351ZM117.554 159.342C116.167 157.428 114.136 157.35 113.316 157.35C110.855 157.369 109.605 158.599 109.039 159.42C108.199 160.611 107.887 162.271 107.887 163.658C107.887 165.65 108.492 166.997 108.883 167.662C109.254 168.228 109.683 168.638 109.84 168.794C110.465 169.322 111.011 169.556 111.304 169.673C111.715 169.829 112.34 170.025 113.355 170.025C113.746 170.025 114.683 170.005 115.64 169.575C117.085 168.911 118.745 167.154 118.726 163.541C118.726 163.013 118.726 160.943 117.554 159.342Z" fill="#252525"/>
<path d="M136.107 169.966C135.267 170.786 133.9 171.587 131.341 171.587C130.853 171.587 128.803 171.568 127.201 170.533C126.732 170.24 126.303 169.83 125.971 169.4C125.072 168.208 124.955 166.841 124.916 166.353L127.084 166.08C127.103 166.529 127.142 167.798 128.119 168.794C128.646 169.361 129.662 169.986 131.439 169.986C131.654 169.986 132.24 169.986 132.826 169.81C133.47 169.634 135.208 169.048 135.208 166.959C135.208 165.943 134.779 165.533 134.447 165.24C133.841 164.771 133.06 164.595 132.357 164.439L131.049 164.166C129.955 163.931 128.744 163.677 127.728 163.111C125.912 162.135 125.678 160.748 125.678 159.85C125.678 158.658 126.205 157.643 127.123 156.9C128.666 155.611 130.541 155.651 131.166 155.651C132.63 155.651 134.037 155.885 135.208 156.783C135.912 157.311 136.263 157.838 136.419 158.131C136.829 158.814 137.005 159.518 137.122 160.299L135.091 160.435C135.072 160.142 135.033 159.83 134.935 159.537C134.642 158.463 133.666 157.232 131.185 157.232C130.228 157.232 128.92 157.447 128.256 158.248C127.943 158.619 127.748 159.127 127.748 159.615C127.748 159.83 127.787 160.299 128.119 160.728C128.705 161.529 129.877 161.763 130.756 161.978L132.416 162.388C132.806 162.467 133.216 162.584 133.587 162.681C134.056 162.779 135.892 163.189 136.81 164.732C137.025 165.103 137.376 165.767 137.376 166.822C137.376 167.427 137.298 168.775 136.107 169.927V169.966Z" fill="#252525"/>
</svg>
